<?xml version="1.0" encoding="UTF-8"?>
<svg width="140px" height="140px" viewBox="0 0 140 140" version="1.1" xmlns="http://www.w3.org/2000/svg" xmlns:xlink="http://www.w3.org/1999/xlink">
    <!-- Generator: Sketch 40.3 (33839) - http://www.bohemiancoding.com/sketch -->
    <title>Group 24</title>
    <desc>Created with Sketch.</desc>
    <defs></defs>
    <g id="Symbols" stroke="none" stroke-width="1" fill="none" fill-rule="evenodd">
        <g id="Social-Button-Nav-Big" transform="translate(-59.000000, -470.000000)">
            <g id="Group-31" transform="translate(59.000000, 470.000000)">
                <g id="Group-24">
                    <rect id="Rectangle-11-Copy-16" fill="#2AA3EF" x="0" y="0" width="140" height="140"></rect>
                    <path d="M68.5372201,98.9610788 C67.7174743,98.9610788 67.0106276,98.656742 66.4068628,98.0480685 C65.8080066,97.439395 65.5036698,96.708005 65.5036698,95.8588073 C65.5036698,95.0047009 65.8030979,94.2880369 66.4068628,93.7039067 C67.005719,93.1197764 67.7125656,92.825257 68.5274028,92.825257 L92.8645262,92.825257 L92.8645262,80.6812385 C92.8645262,79.8222235 93.168863,79.0908335 93.7775365,78.4919773 C94.38621,77.8931211 95.102874,77.593693 95.9324371,77.593693 C96.7620002,77.593693 97.4786642,77.8931211 98.0873377,78.496886 C98.6960113,79.0957422 99.000348,79.8320408 99.000348,80.6959645 L99.000348,92.8988869 C99.000348,94.5825563 98.4113091,96.0158843 97.2332314,97.1939621 C96.0502449,98.3720399 94.6218256,98.9610788 92.9381561,98.9610788 L68.5372201,98.9610788 Z M58.5922802,73.4409688 C72.0616361,53.349834 86.5421755,41.5248783 102.033898,37.9661017 C102.033898,38.879112 101.611754,40.0915504 100.772373,41.6083255 C99.9280843,43.1251006 98.9561701,44.366991 97.8468135,45.3290878 C96.7423656,46.2911847 94.9948836,47.6263395 92.6141847,49.3345523 C90.2334859,51.0427651 88.5596337,52.4711844 87.5975368,53.6296275 C88.9523263,53.722892 90.6605391,53.4970938 92.7172665,52.9424155 C94.773994,52.3877372 96.6491011,51.6563472 98.3425879,50.7384283 C96.9681639,54.7291668 94.5776477,57.7332651 91.1710394,59.7507233 C89.3842881,60.8060847 87.2735655,61.7190949 84.8339627,62.4897542 C82.39436,63.2604134 80.5536134,64.340318 79.3019058,65.7343767 L78.7226842,66.4510407 C81.8985856,66.5983004 85.2413813,66.0190788 88.7510713,64.7231933 C88.1767584,67.364051 86.0709444,69.67112 82.4385379,71.6394916 C78.8110401,73.6127719 75.4780617,74.785941 72.4494201,75.1737249 C72.4494201,75.2228115 72.4248768,75.2424461 72.3757902,75.2424461 C66.6572043,76.204543 60.9337098,81.2702774 55.2102152,90.4494668 C51.0967603,97.1350582 48.406816,101.263239 47.1256564,102.829101 C45.8248622,104.390054 45.0051164,105.111627 44.6713277,104.993819 C43.5865144,104.610943 43.8957599,102.092802 45.6039726,97.4492123 C48.4411766,90.0420482 52.7706125,82.0409366 58.5922802,73.4409688 L58.5922802,73.4409688 Z M44.1019235,77.593693 C44.1019235,78.4625254 43.7975867,79.1939153 43.1889132,79.7976802 C42.5802397,80.3965364 41.8635757,80.6959645 41.0340126,80.6959645 C40.2044495,80.6959645 39.4877855,80.3965364 38.879112,79.7976802 C38.2704385,79.1939153 37.9661017,78.4625254 37.9661017,77.593693 L37.9661017,53.2663869 C37.9661017,51.5827174 38.5551406,50.1395721 39.7332184,48.936951 C40.9112961,47.73433 42.3446241,47.1305651 44.0282936,47.1305651 L59.2598576,47.1305651 C60.1286899,47.1305651 60.8600799,47.4349019 61.4638448,48.0337581 C62.062701,48.6375229 62.3670377,49.3590956 62.3670377,50.198476 C62.3670377,51.0427651 62.0676096,51.7643377 61.4687534,52.3631939 C60.8698972,52.9669588 60.1385072,53.2663869 59.2745835,53.2663869 L44.1019235,53.2663869 L44.1019235,77.593693 Z" id="Fill-1" fill="#FFFFFF"></path>
                </g>
            </g>
        </g>
    </g>
</svg>